<svg version="1.2" xmlns="http://www.w3.org/2000/svg" viewBox="0 0 1024 1024" width="1024" height="1024">
	<title>savr-logo</title> 
	<path id="Path 0" fill="#aeb670" class="s0" d="m501 123.04c-7.43 0.41-18.68 1.51-25 2.44-6.32 0.93-15.77 2.55-21 3.61-5.23 1.06-14.45 3.32-20.5 5.03-6.05 1.71-16.18 5.12-22.5 7.57-6.32 2.45-16.9 7.22-23.5 10.6-6.6 3.38-16.5 9.11-22 12.75-5.5 3.63-14.05 9.99-19 14.15-4.95 4.15-11.93 10.64-15.5 14.43-3.57 3.79-8.58 9.58-11.11 12.88-2.54 3.3-7.12 9.82-10.17 14.5-3.06 4.68-8.06 13.68-11.1 20-3.05 6.32-7.16 16.45-9.14 22.5-1.97 6.05-4.67 16.4-5.99 23-1.32 6.6-2.94 17.18-3.59 23.5-0.72 7.07-0.97 19.2-0.63 31.5 0.31 11.63 1.22 23.77 2.17 29 0.89 4.95 2.71 13.05 4.05 18 1.33 4.95 4.04 13.05 6.03 18 1.98 4.95 6 13.27 8.94 18.5 2.93 5.23 8.08 13.21 11.44 17.75 3.35 4.54 9.81 12.14 14.35 16.9 4.54 4.77 12.07 11.86 16.75 15.78 4.68 3.91 13.68 10.56 20 14.76 6.32 4.2 16.45 10.36 22.5 13.68 6.05 3.33 17.75 9.04 26 12.7 8.25 3.66 20.18 8.39 26.5 10.53 6.32 2.13 13.07 3.87 15 3.86 2.03 0 7.7-1.94 13.5-4.6 5.5-2.53 13.15-5.26 17-6.08 4.68-0.99 9.81-1.29 15.5-0.92 4.68 0.3 11.43 1.41 15 2.45 3.58 1.04 10.77 3.6 16 5.69 5.23 2.09 16.25 6.92 24.5 10.75 8.25 3.82 36.6 17.67 63 30.78 26.4 13.11 50.25 25.32 53 27.15 2.8 1.86 5.77 4.86 6.75 6.82 0.96 1.93 1.75 4.96 1.75 6.75 0 1.79-0.67 4.6-1.5 6.25-0.83 1.65-2.51 3.68-3.75 4.51-1.24 0.83-3.71 1.5-5.5 1.5-1.79-0.01-8.09-2.21-14-4.89-5.91-2.69-26.27-12.41-45.25-21.61-18.98-9.19-36.98-17.86-40-19.26-3.02-1.4-13.37-6.31-23-10.92-9.62-4.61-18.74-8.37-20.25-8.35-1.51 0.01-3.65 0.47-4.75 1.02-1.1 0.55-2.67 2.58-3.5 4.5-0.83 1.92-1.51 4.74-1.52 6.25-0.01 1.72 1.01 3.74 2.75 5.39 1.52 1.46 16.5 9.06 33.27 16.9 16.77 7.84 47.15 22.3 67.5 32.13 20.35 9.84 38.13 19.01 39.5 20.38 1.69 1.68 2.5 3.6 2.5 5.89q0 3.4-2.5 5.99c-1.38 1.42-3.63 2.83-5 3.11-1.38 0.29-4.3-0.11-6.5-0.88-2.2-0.78-22.23-10.2-44.5-20.93-22.27-10.73-51.75-24.97-65.5-31.65-13.75-6.67-26.01-12.11-27.25-12.1-1.24 0.01-3.15 0.47-4.25 1.02-1.1 0.55-2.68 2.35-3.5 4-0.82 1.65-1.51 4.69-1.53 6.75-0.01 2.63 0.66 4.39 2.25 5.89 1.26 1.18 9.26 5.29 17.78 9.14 8.52 3.85 23.37 10.7 33 15.22 9.62 4.53 32.8 15.74 51.5 24.91 25.05 12.28 34.6 17.45 36.28 19.63 1.26 1.63 2.27 4.2 2.25 5.71-0.01 1.51-1.16 4.1-2.53 5.75-2.01 2.42-3.28 3-6.5 3-3.1 0-10-2.94-30.75-13.1-14.71-7.21-44.08-21.44-65.25-31.61-21.17-10.18-40.19-19.14-42.25-19.9-2.06-0.76-4.76-1.16-6-0.89-1.24 0.28-3.26 1.52-4.49 2.75-1.24 1.24-2.53 3.83-2.88 5.75-0.35 1.92-0.36 4.74-0.01 6.25 0.52 2.26 2.1 3.44 8.88 6.64 4.54 2.14 16.35 7.82 26.25 12.62 9.9 4.8 24.3 11.77 32 15.5 7.7 3.72 26.37 12.67 41.5 19.88 18.31 8.74 28.42 14.12 30.25 16.11 1.51 1.65 2.75 3.79 2.76 4.75 0 0.96-0.79 2.85-1.75 4.19-0.97 1.34-3.22 3.03-5.01 3.75-1.79 0.72-4.83 1.31-6.75 1.31-1.92 0-17.79-4.69-35.25-10.43-17.46-5.73-43.45-14.07-57.75-18.54-14.3-4.46-30.95-9.72-37-11.68-6.05-1.96-16.18-5.37-22.5-7.58-6.32-2.2-16.45-5.94-22.5-8.3-6.05-2.36-15.05-6.07-20-8.25-4.95-2.17-15.75-7.32-24-11.43-8.25-4.11-21.3-11.26-29-15.88-7.7-4.62-19.4-12.16-26-16.76-10.64-7.41-12.26-8.24-14.25-7.26-1.24 0.61-5.51 5.27-9.5 10.36-3.98 5.09-20.73 26.12-37.21 46.75-16.48 20.62-30.99 38.96-32.25 40.75-1.62 2.29-2.07 3.88-1.54 5.4 0.41 1.19 5.59 6.81 11.5 12.5 5.91 5.69 15.14 13.85 20.5 18.12 5.36 4.27 14.24 10.91 19.74 14.75 5.49 3.84 15.84 10.51 23 14.82 7.15 4.32 20.88 11.76 30.51 16.54 9.62 4.79 23.57 11.1 31 14.03 7.43 2.93 18.9 7.11 25.5 9.27 6.6 2.17 19.2 5.69 28 7.83 8.8 2.14 21.4 4.79 28 5.89 6.6 1.1 16.73 2.58 22.5 3.3 6.61 0.82 22.16 1.3 42 1.3 20.09 0 35.3-0.48 42-1.32 5.77-0.72 16.35-2.45 23.5-3.84 7.15-1.38 18.17-4.09 24.5-6 6.33-1.92 16.45-5.42 22.5-7.78 6.05-2.36 15.5-6.55 21-9.32 5.5-2.76 14.73-8.14 20.5-11.96 5.77-3.82 13.87-9.66 18-12.99 4.12-3.32 12-10.74 17.5-16.47 5.5-5.74 12.56-14.01 15.68-18.37 3.12-4.37 8.02-12 10.87-16.95 2.86-4.95 6.88-12.83 8.95-17.5 2.06-4.67 5.19-13 6.96-18.5 1.77-5.5 4.29-15.17 5.61-21.5 1.32-6.33 2.92-17.35 3.55-24.5 0.67-7.49 0.9-19.57 0.56-28.5-0.32-8.52-1.32-20.23-2.2-26-0.88-5.77-2.68-14.77-3.99-20-1.31-5.23-3.81-13.55-5.55-18.5-1.74-4.95-5.06-13.05-7.38-18-2.31-4.95-6.59-12.83-9.5-17.5-2.92-4.67-7.38-11.2-9.92-14.5-2.54-3.3-8-9.54-12.13-13.87-4.13-4.33-11.09-10.86-15.47-14.5-4.38-3.65-14.28-10.83-22-15.97-7.72-5.13-21.46-13.04-30.54-17.57-9.08-4.53-24.83-11.52-35-15.53-10.17-4.01-36.95-13.48-59.5-21.04-22.55-7.55-46.18-15.86-52.5-18.45-6.32-2.59-15.1-6.61-19.5-8.93-4.4-2.33-10.7-5.98-14-8.12-3.3-2.14-10.06-7.97-15.03-12.96-6.92-6.94-9.89-10.81-12.7-16.56-2.03-4.13-4.38-10.2-5.23-13.5-0.85-3.3-1.54-10.05-1.53-15 0.01-4.95 0.69-11.81 1.5-15.25 0.82-3.44 2.77-9.06 4.34-12.5 1.57-3.44 5.06-9.15 7.75-12.7 2.7-3.54 7.6-8.45 10.9-10.9 3.3-2.44 9.6-6.14 14-8.22 4.4-2.08 11.82-4.76 16.5-5.97 5.78-1.49 12.82-2.36 22-2.71 7.92-0.3 17.84-0.01 24 0.72 5.77 0.68 15.9 2.56 22.5 4.19 6.6 1.63 16.27 4.55 21.5 6.49 5.23 1.95 14.23 6.02 20 9.06 5.77 3.04 14.33 8.05 19 11.14 4.67 3.09 12.77 9.03 18 13.21 5.23 4.17 14.34 11.94 20.25 17.26 6.78 6.11 11.58 9.69 13 9.7 1.24 0.01 3.41-1.22 4.83-2.75 1.42-1.52 8.84-10.85 16.5-20.72 7.66-9.88 23.7-30.13 35.66-45 16.47-20.48 21.75-27.72 21.75-29.8 0.01-2.18-1.89-4.52-9.24-11.36-5.09-4.74-14.2-12.36-20.25-16.94-6.05-4.58-15.73-11.29-21.5-14.91-5.77-3.63-17.02-9.91-25-13.96-7.98-4.05-20.8-9.84-28.5-12.87-7.7-3.03-18.5-6.89-24-8.57-5.5-1.69-15.63-4.42-22.5-6.09-6.88-1.66-17.67-3.9-24-4.97-6.33-1.07-17.13-2.41-24-2.96-6.88-0.56-17.45-1.2-23.5-1.42-6.05-0.22-17.07-0.06-24.5 0.34z"/>
</svg>